<svg version="1.0" xmlns="http://www.w3.org/2000/svg"
 width="512.000000pt" height="512.000000pt" viewBox="0 0 512.000000 512.000000"
 preserveAspectRatio="xMidYMid meet">
<style>
  path { fill: #000; }
  @media (prefers-color-scheme: dark) {
      path { fill: #FFF; }
  }
</style>
<g transform="translate(0.000000,512.000000) scale(0.100000,-0.100000)"
fill="#000000" stroke="none">
<path d="M1415 4675 c-546 -85 -888 -427 -970 -970 -22 -149 -22 -2141 0
-2290 84 -554 446 -906 1005 -975 119 -14 2104 -14 2225 1 563 69 935 441
1005 1009 14 115 14 2105 0 2220 -61 494 -349 842 -802 969 -178 50 -199 51
-1328 50 -794 -1 -1075 -4 -1135 -14z m743 -1358 c38 -37 56 -92 46 -145 -5
-32 -45 -76 -292 -324 l-286 -288 286 -287 c246 -249 286 -293 292 -325 21
-116 -85 -216 -199 -187 -34 9 -86 57 -342 312 -346 346 -348 348 -348 487 0
135 4 140 339 478 160 162 300 298 311 304 61 34 143 23 193 -25z m1008 14
c21 -16 163 -154 315 -307 318 -322 323 -330 324 -464 0 -136 -3 -139 -349
-487 -263 -263 -306 -303 -343 -313 -61 -15 -112 1 -156 49 -19 21 -37 54 -41
74 -15 80 -6 93 293 391 l279 279 -276 283 c-293 300 -309 321 -297 396 19
112 159 167 251 99z"/>
</g>
</svg>
